# xmcd CD database file
#
# Track frame offsets:
#	150
#	13849
#	26546
#	39016
#	54441
#	65228
#	83534
#	95645
#	104426
#	119898
#	132827
#	144931
#
# Disc length: 2064 seconds
#
# Revision: 1
# Processed by: cddbd v1.5.2PL0 Copyright (c) Steve Scherf et al.
# Submitted via: CDex 1.51
#
DISCID=a0080e0c
DTITLE=Luigi Tenco - Ti ricorderai di me...
DYEAR=1966
DGENRE=Jazz
TTITLE0=Quando
TTITLE1=Mi sono innamorato di te
TTITLE2=Angela
TTITLE3=Senza parole
TTITLE4=Il tempo passò
TTITLE5=Il mio regno
TTITLE6=In qualche parte del mondo
TTITLE7=Isy
TTITLE8=Io sì
TTITLE9=Quello che conta
TTITLE10=Come mi vedono gli altri
TTITLE11=Ti ricorderai
EXTD=YEAR: 1966
EXTT0=
EXTT1=
EXTT2=
EXTT3=
EXTT4=
EXTT5=
EXTT6=
EXTT7=
EXTT8=
EXTT9=
EXTT10=
EXTT11=
PLAYORDER=
